<svg width="1920" height="1237" viewBox="0 0 1920 1237" fill="none" xmlns="http://www.w3.org/2000/svg">
<path d="M1867.53 185L17.843 185C7.98858 185 0 177.011 0 167.157L0 119.811C0 103.23 6.31844 87.2718 17.6693 75.1849L44.1379 46.9999C68.0533 21.5338 108.498 21.5338 132.414 47C156.329 72.4661 196.774 72.4661 220.69 47C244.605 21.5338 285.05 21.5338 308.966 47C332.881 72.4661 373.326 72.4661 397.241 47C421.157 21.5338 461.602 21.5338 485.517 47C509.433 72.4661 549.878 72.4661 573.793 47C597.708 21.5338 638.154 21.5338 662.069 47C685.984 72.4661 726.429 72.4661 750.345 47C774.26 21.5338 814.705 21.5338 838.621 47C862.536 72.4661 902.981 72.4661 926.897 47C950.812 21.5338 991.257 21.5338 1015.17 47C1039.09 72.4661 1079.53 72.4661 1103.45 47C1127.36 21.5338 1167.81 21.5338 1191.72 47C1215.64 72.4661 1256.08 72.4661 1280 47C1303.92 21.5338 1344.36 21.5338 1368.28 47C1392.19 72.4661 1432.64 72.4661 1456.55 47C1480.47 21.5338 1520.91 21.5338 1544.83 47C1568.74 72.4661 1609.19 72.466 1633.1 46.9999L1639.06 40.6539C1661.31 16.9611 1697.12 12.0949 1724.88 28.9902L1804.94 77.6998C1820.55 87.1994 1840.68 84.4633 1853.19 71.1417C1877.16 45.6182 1920 62.5803 1920 97.5944V132.527C1920 161.507 1896.51 185 1867.53 185Z" fill="#EB0029"/>
<path d="M52.4729 1052L1902.16 1052C1912.01 1052 1920 1059.99 1920 1069.84L1920 1117.19C1920 1133.77 1913.68 1149.73 1902.33 1161.82L1875.86 1190C1851.95 1215.47 1811.5 1215.47 1787.59 1190C1763.67 1164.53 1723.23 1164.53 1699.31 1190C1675.39 1215.47 1634.95 1215.47 1611.03 1190C1587.12 1164.53 1546.67 1164.53 1522.76 1190C1498.84 1215.47 1458.4 1215.47 1434.48 1190C1410.57 1164.53 1370.12 1164.53 1346.21 1190C1322.29 1215.47 1281.85 1215.47 1257.93 1190C1234.02 1164.53 1193.57 1164.53 1169.66 1190C1145.74 1215.47 1105.29 1215.47 1081.38 1190C1057.46 1164.53 1017.02 1164.53 993.103 1190C969.188 1215.47 928.743 1215.47 904.828 1190C880.912 1164.53 840.467 1164.53 816.552 1190C792.636 1215.47 752.191 1215.47 728.276 1190C704.36 1164.53 663.915 1164.53 640 1190C616.085 1215.47 575.64 1215.47 551.724 1190C527.809 1164.53 487.364 1164.53 463.448 1190C439.533 1215.47 399.088 1215.47 375.172 1190C351.257 1164.53 310.812 1164.53 286.896 1190L280.937 1196.35C258.687 1220.04 222.881 1224.91 195.115 1208.01L115.064 1159.3C99.4521 1149.8 79.3199 1152.54 66.8096 1165.86C42.8403 1191.38 -5.47095e-06 1174.42 -8.53197e-06 1139.41L-1.15859e-05 1104.47C-1.41194e-05 1075.49 23.4929 1052 52.4729 1052Z" fill="#EB0029"/>
<rect y="95" width="1920" height="1028" fill="#EB0029"/>
</svg>
