<svg width="139" height="139" viewBox="0 0 139 139" fill="none" xmlns="http://www.w3.org/2000/svg">
<path d="M32.4334 57.9165H30.1169C28.8374 57.9165 27.8003 58.9536 27.8003 60.2331C27.8003 61.5126 28.8374 62.5497 30.1169 62.5497H32.4334C33.713 62.5497 34.75 61.5126 34.75 60.2331C34.75 58.9536 33.713 57.9165 32.4334 57.9165Z" fill="white" fill-opacity="0.25"/>
<path d="M46.3334 62.5498H44.0168C42.7373 62.5498 41.7002 63.5869 41.7002 64.8664C41.7002 66.1459 42.7373 67.183 44.0168 67.183H46.3334C47.6129 67.183 48.6499 66.1459 48.6499 64.8664C48.6499 63.5869 47.6129 62.5498 46.3334 62.5498Z" fill="white" fill-opacity="0.25"/>
<path d="M60.2335 57.9165H57.9169C56.6374 57.9165 55.6003 58.9536 55.6003 60.2331C55.6003 61.5126 56.6377 62.5497 57.9169 62.5497H60.2335C61.513 62.5497 62.5501 61.5126 62.5501 60.2331C62.5501 58.9536 61.513 57.9165 60.2335 57.9165Z" fill="white" fill-opacity="0.25"/>
<path d="M136.683 134.367H125.809L134.323 78.8662C134.497 77.6798 134.144 76.4766 133.357 75.572C132.563 74.656 131.409 74.1307 130.197 74.1334H128.212C127.938 74.1334 127.677 74.1752 127.408 74.1913V66.6736C127.407 64.4002 125.567 62.5562 123.294 62.55H115.834V57.9166C115.834 56.6371 114.797 55.6 113.517 55.6H104.25V55.0904C104.246 53.1618 102.907 51.493 101.025 51.0711L103.995 25.4834H106.567C107.846 25.4834 108.883 24.4461 108.883 23.1668V16.2168C108.883 12.3786 105.772 9.26685 101.933 9.26685V6.95C101.933 3.11175 98.8219 0 94.9834 0H41.7C37.8615 0 34.75 3.11148 34.75 6.95V9.26658C30.9118 9.26658 27.8 12.3781 27.8 16.2166V23.1666C27.8 24.4461 28.8371 25.4832 30.1166 25.4832H32.6881L35.1135 46.3332H30.1166C16.0493 46.3497 4.64971 57.7493 4.63315 71.8166V74.1332C4.63315 76.6922 6.70756 78.7666 9.26658 78.7666H11.5832V86.0456C7.24293 87.1335 4.31904 91.1916 4.66084 95.6529C5.0097 99.5683 7.77966 102.843 11.5832 103.835V111.2H9.26658C6.70756 111.2 4.63315 113.274 4.63315 115.833V122.783C4.63261 127.146 6.39563 131.324 9.52123 134.367H2.31658C1.03707 134.367 0 135.404 0 136.683C0 137.963 1.03707 139 2.31658 139H136.683C137.963 139 139 137.963 139 136.683C139 135.404 137.963 134.367 136.683 134.367ZM115.833 67.1834H122.783V75.4862C120.401 76.7209 118.541 78.7696 117.541 81.2593C117.067 82.4259 116.496 83.5504 115.833 84.6209V67.1834ZM104.25 60.2334H111.2V88.0334V88.0565V89.8125C109.136 91.4237 106.774 92.6109 104.25 93.3059V60.2334ZM39.3834 6.95C39.3834 5.67049 40.4208 4.63342 41.7 4.63342H94.9834C96.2629 4.63342 97.3 5.67049 97.3 6.95V9.26658H39.3834V6.95ZM32.4334 20.85V16.2166C32.4334 14.9371 33.4705 13.9 34.75 13.9H101.933C103.213 13.9 104.25 14.9371 104.25 16.2166V20.85H32.4334ZM92.6666 55.6H99.6166V94.0707C98.8496 94.131 98.0922 94.2121 97.3 94.2121C95.746 94.2021 94.1961 94.0588 92.6666 93.7835V55.6ZM92.157 50.9666C90.7779 50.9677 89.4905 51.658 88.726 52.8059C84.3613 48.8778 78.7611 46.5989 72.8938 46.3633C72.5347 46.3332 72.1757 46.3332 71.8166 46.3332H39.7771L37.3516 25.4832H99.3318L96.3734 50.9666H92.157ZM9.26658 74.1334V71.8168C9.28069 60.3075 18.6073 50.981 30.1166 50.9668H71.8166C72.0598 50.9668 72.3009 50.9669 72.6321 50.9878C77.1048 51.1607 81.4008 52.7793 84.8758 55.6003H80.5739C78.2969 55.6016 76.4514 57.4469 76.4503 59.7239V64.8668H68.9907C66.7138 64.8682 64.8682 66.7135 64.8671 68.9904V74.1334H9.26658ZM88.0334 60.2334V92.5045C85.384 91.4444 83.0082 89.7994 81.0834 87.6927V60.2334H88.0334ZM76.45 69.5V80.0569C74.9772 77.3581 72.4671 75.3768 69.5 74.5711V69.5H76.45ZM61.3267 85.7166H54.2331C53.0087 85.7174 51.8342 86.2031 50.9666 87.0672L39.3832 98.6506L27.8 87.0672C26.9323 86.2031 25.7579 85.7174 24.5335 85.7166H16.2166V78.7666H60.275C60.275 78.8106 60.275 78.8545 60.275 78.8985L61.3267 85.7166ZM62.0426 90.35L63.4535 99.6166H44.9736L54.2401 90.35H62.0426ZM64.1716 104.25L66.5995 120.101L64.8666 121.824L55.6 112.558C54.7337 111.691 53.559 111.203 52.3335 111.2H16.2166V104.25H64.1716ZM9.28287 95.3193C9.17346 93.9765 9.66566 92.6544 10.6264 91.7099C11.4917 90.837 12.6707 90.347 13.9 90.35H24.5172L33.7838 99.6166H14.2939C11.7675 99.6845 9.60105 97.8264 9.28287 95.3193ZM20.85 134.362C14.4576 134.354 9.27689 129.176 9.26658 122.783V115.833H13.9H52.3126L63.2241 126.745C64.1287 127.649 65.5952 127.649 66.4998 126.745L67.4544 125.79L68.7702 134.362L20.85 134.362ZM73.4591 134.367L64.9475 78.7663L66.363 78.7666C69.1473 78.7478 71.6675 80.4123 72.7432 82.9806C73.7615 85.5599 75.1898 87.9577 76.9734 90.0812C77.0554 90.1961 77.1485 90.3022 77.2514 90.3986C82.3624 96.0316 89.6987 99.1225 97.2997 98.8453C108.883 98.8453 117.825 93.0537 121.856 82.9784C122.93 80.4164 125.442 78.7541 128.22 78.7666L129.65 78.7663L121.122 134.367H73.4591Z" fill="white" fill-opacity="0.25"/>
<path d="M96.1415 104.25C90.9879 104.25 86.342 107.354 84.3696 112.116C82.3976 116.877 83.4876 122.357 87.1317 126.002C90.7759 129.646 96.2563 130.736 101.018 128.764C105.779 126.792 108.883 122.145 108.883 116.992C108.875 109.958 103.175 104.258 96.1415 104.25ZM96.1415 125.1C91.6633 125.1 88.033 121.47 88.033 116.992C88.033 112.513 91.6633 108.883 96.1415 108.883C100.62 108.883 104.25 112.513 104.25 116.992C104.25 121.47 100.62 125.1 96.1415 125.1Z" fill="white" fill-opacity="0.25"/>
</svg>
