<svg width="220" height="60" viewBox="0 0 184 50" fill="none" xmlns="http://www.w3.org/2000/svg">
<path d="M49.8504 25.8856C49.3632 38.9628 38.6334 49.545 25.5488 49.8587C25.4565 49.8624 25.3642 49.8624 25.272 49.8624C20.7911 49.9214 18.3993 44.599 21.389 41.2623L24.1905 38.136C24.77 37.4864 25.689 37.2834 26.5011 37.5972C28.0697 38.2062 30.3397 38.4608 31.901 36.8996L38.0097 30.7909C38.1721 30.6322 38.2533 30.4181 38.2533 30.2041C38.2533 29.9715 38.1573 29.7427 37.9654 29.5766C37.6295 29.285 37.1127 29.3367 36.7953 29.6504L32.1114 34.3417C31.949 34.5041 31.7386 34.5853 31.5245 34.5853C31.2182 34.5853 30.9044 34.4155 30.7679 34.0759C30.635 33.7474 30.7347 33.3709 30.9856 33.12L35.6622 28.4434C35.8209 28.281 35.9058 28.0706 35.9058 27.8566C35.9058 27.6536 35.832 27.4542 35.688 27.2955C35.3669 26.9449 34.7948 26.9633 34.4552 27.2992L29.7676 31.9868C29.6052 32.1492 29.3948 32.2341 29.1807 32.2341C28.9667 32.2341 28.7526 32.1492 28.5902 31.9868C28.4315 31.8281 28.3466 31.614 28.3466 31.3999C28.3466 31.1859 28.4278 30.9755 28.5902 30.8131L33.2667 26.1366C33.5177 25.8856 33.6173 25.5091 33.4845 25.1806C33.3442 24.841 33.0305 24.6712 32.7278 24.6712C32.5137 24.6712 32.2997 24.7524 32.1409 24.9148L27.4497 29.5987C27.099 29.9494 26.5011 29.9641 26.1836 29.5803C26.0581 29.4252 25.9917 29.2407 25.9917 29.0525C25.9917 28.8384 26.0729 28.6243 26.2353 28.4619L30.9266 23.7743C31.2366 23.4606 31.2883 22.9438 30.9967 22.6116C30.8306 22.4197 30.6018 22.3274 30.3692 22.3274C30.1552 22.3274 29.9411 22.4086 29.7787 22.571L23.6737 28.676C22.1088 30.241 22.3671 32.5109 22.9761 34.0759C23.2899 34.8843 23.0832 35.8033 22.4373 36.3865L16.6904 41.5392C13.4644 44.4329 8.44094 44.1266 5.68375 40.7788C1.94475 36.2462 -0.221873 30.3628 0.0180432 23.9736C0.508948 10.8927 11.2424 0.317915 24.3234 0.00786965C24.4193 0.00417863 24.5116 0.00048762 24.6039 0.00048762C29.0774 -0.0585686 31.4655 5.26018 28.4721 8.58579L25.5783 11.8043C25.0468 12.3912 24.2053 12.5942 23.4744 12.2916C21.9021 11.6456 19.5546 11.3356 17.949 12.9412L15.369 15.5212C13.099 17.7949 13.099 21.4748 15.369 23.7485C17.6426 26.0184 21.3226 26.0184 23.5962 23.7485L26.1726 21.1685C27.7745 19.5666 27.4681 17.2191 26.8296 15.6504C26.5306 14.9159 26.7336 14.0706 27.3205 13.5428L33.1781 8.30527C36.4077 5.4189 41.4201 5.73263 44.1773 9.073C47.92 13.6129 50.0903 19.4927 49.8504 25.8856Z" fill="white"/>
<path d="M64.0209 31.6351C62.4266 31.6351 61.2938 31.3275 60.6225 30.7121C59.9791 30.0688 59.6575 29.1317 59.6575 27.901C59.6575 27.5654 59.6715 27.0059 59.6994 26.2228C59.7554 25.4116 59.8253 24.4606 59.9092 23.3697C59.9931 22.2789 60.077 21.0901 60.1609 19.8034C60.2728 18.4888 60.3847 17.1602 60.4966 15.8176C60.7204 12.9925 60.8742 10.6989 60.9581 8.93672C61.07 7.17455 61.1539 5.78998 61.2099 4.78303C61.2938 3.52434 61.3777 2.72717 61.4616 2.39152C61.5455 2.02789 61.7273 1.84608 62.007 1.84608C62.8741 1.84608 63.7552 1.8321 64.6503 1.80413C65.5733 1.74818 66.4544 1.69224 67.2935 1.6363C68.1327 1.58036 68.9159 1.5384 69.6431 1.51043C70.3983 1.45449 71.0696 1.42652 71.657 1.42652C73.4472 1.42652 74.9856 1.65028 76.2722 2.09782C77.5589 2.54536 78.5938 3.1747 79.377 3.98586C80.1881 4.79702 80.7755 5.776 81.1392 6.92281C81.5308 8.06962 81.7266 9.35628 81.7266 10.7828C81.7266 12.9645 81.293 14.9085 80.4259 16.6147C79.5588 18.321 78.1742 19.6216 76.2722 20.5167L79.7966 25.5515C80.4399 26.5025 80.9294 27.2437 81.265 27.7752C81.6007 28.2786 81.7685 28.6562 81.7685 28.908C81.7685 29.1038 81.6426 29.3835 81.3909 29.7471C81.1671 30.0828 80.8175 30.4324 80.342 30.796C79.8945 31.1317 79.335 31.4254 78.6637 31.6771C78.0204 31.9288 77.2932 32.0547 76.482 32.0547C75.5869 32.0547 74.8037 31.761 74.1324 31.1736C73.4891 30.5862 72.9017 29.817 72.3703 28.866C71.8668 27.887 71.4193 26.7682 71.0277 25.5095C70.664 24.2508 70.3144 22.9362 69.9788 21.5656C68.9718 21.5097 68.1467 21.4118 67.5033 21.2719C67.4194 22.5026 67.3355 23.6774 67.2516 24.7962C67.1677 25.9151 67.0977 26.922 67.0418 27.8171C66.9859 28.6842 66.9299 29.4115 66.874 29.9988C66.818 30.5583 66.7901 30.8939 66.7901 31.0058C66.7621 31.2296 66.7062 31.3974 66.6222 31.5093C66.5383 31.5932 66.3705 31.6351 66.1188 31.6351H64.0209ZM70.8179 7.71998C70.4822 7.71998 70.1046 7.74795 69.6851 7.80389C69.2655 7.83186 68.818 7.87382 68.3425 7.92976C68.2865 8.90875 68.2166 10.0835 68.1327 11.4541C68.0767 12.7967 67.9928 14.2372 67.8809 15.7756C68.8599 15.9994 69.713 16.1113 70.4403 16.1113C71.3074 16.1113 72.0066 15.9434 72.5381 15.6078C73.0975 15.2721 73.5311 14.8666 73.8387 14.3911C74.1464 13.8876 74.3422 13.3561 74.4261 12.7967C74.538 12.2373 74.594 11.7338 74.594 11.2863C74.594 10.1395 74.3142 9.25838 73.7548 8.64302C73.1954 8.02766 72.2164 7.71998 70.8179 7.71998Z" fill="white"/>
<path d="M92.8598 32.0547C91.629 32.0547 90.3983 31.9009 89.1676 31.5932C87.9648 31.2855 86.874 30.7541 85.895 29.9988C84.944 29.2436 84.1608 28.2367 83.5454 26.978C82.9301 25.7193 82.6224 24.1389 82.6224 22.2369C82.6224 21.5376 82.6783 20.6985 82.7902 19.7195C82.9021 18.7405 83.1119 17.7336 83.4196 16.6987C83.7552 15.6637 84.2027 14.6428 84.7622 13.6358C85.3496 12.6009 86.1048 11.6779 87.0278 10.8667C87.9509 10.0556 89.0697 9.39824 90.3843 8.89476C91.699 8.39128 93.2653 8.13955 95.0834 8.13955C96.5379 8.13955 97.7687 8.30737 98.7756 8.64302C99.7826 8.97867 100.594 9.44019 101.209 10.0276C101.824 10.587 102.272 11.2443 102.552 11.9995C102.831 12.7548 102.971 13.5659 102.971 14.433C102.971 15.7197 102.706 16.8105 102.174 17.7056C101.671 18.6007 100.999 19.3559 100.16 19.9713C99.349 20.5586 98.44 21.0202 97.433 21.3558C96.426 21.6915 95.4331 21.9572 94.4541 22.153C93.4751 22.3208 92.5661 22.4327 91.7269 22.4886C90.9158 22.5166 90.2864 22.5306 89.8389 22.5306C89.8389 23.062 89.9088 23.5935 90.0487 24.1249C90.2165 24.6284 90.4543 25.076 90.7619 25.4675C91.0696 25.8591 91.4752 26.1808 91.9787 26.4325C92.4821 26.6843 93.0975 26.8102 93.8247 26.8102C94.552 26.8102 95.1114 26.6983 95.503 26.4745C95.9226 26.2228 96.2582 25.957 96.51 25.6773C96.7617 25.3696 96.9715 25.1039 97.1393 24.8802C97.3351 24.6284 97.5868 24.5026 97.8945 24.5026C98.0344 24.5026 98.2721 24.5445 98.6078 24.6284C98.9714 24.6844 99.335 24.8242 99.6987 25.048C100.062 25.2718 100.384 25.5794 100.664 25.971C100.943 26.3626 101.083 26.8661 101.083 27.4815C101.083 28.2926 100.831 28.9919 100.328 29.5793C99.8245 30.1667 99.1672 30.6422 98.356 31.0058C97.5729 31.3694 96.6918 31.6351 95.7128 31.803C94.7338 31.9708 93.7828 32.0547 92.8598 32.0547ZM93.6569 13.7197C93.0416 13.7197 92.5101 13.9016 92.0626 14.2652C91.643 14.6008 91.2794 15.0344 90.9717 15.5658C90.692 16.0973 90.4682 16.6847 90.3004 17.328C90.1606 17.9713 90.0487 18.5867 89.9648 19.1741C91.699 19.1461 93.0975 18.8524 94.1604 18.293C95.2513 17.7336 95.7967 16.9364 95.7967 15.9015C95.7967 15.3421 95.6149 14.8386 95.2513 14.3911C94.9156 13.9435 94.3842 13.7197 93.6569 13.7197Z" fill="white"/>
<path d="M113.596 8.13955C115.973 8.13955 117.721 8.61505 118.84 9.56606C119.959 10.4891 120.519 11.6779 120.519 13.1324C120.519 14.3631 120.127 15.3001 119.344 15.9434C118.589 16.5868 117.484 16.9084 116.029 16.9084C115.638 16.9084 115.372 16.8665 115.232 16.7826C115.092 16.6987 115.022 16.5448 115.022 16.321C115.022 16.0693 114.994 15.7896 114.938 15.4819C114.91 15.1463 114.812 14.8386 114.645 14.5589C114.505 14.2512 114.267 13.9995 113.931 13.8037C113.624 13.6079 113.176 13.51 112.589 13.51C111.806 13.51 111.176 13.7058 110.701 14.0974C110.225 14.461 109.987 14.9225 109.987 15.4819C109.987 16.0693 110.225 16.5448 110.701 16.9084C111.204 17.2441 111.82 17.5658 112.547 17.8734C113.302 18.1811 114.113 18.5028 114.98 18.8384C115.847 19.1461 116.645 19.5657 117.372 20.0971C118.127 20.6286 118.742 21.2999 119.218 22.111C119.721 22.8942 119.973 23.9152 119.973 25.1739C119.973 27.1878 119.26 28.838 117.833 30.1247C116.407 31.4114 114.267 32.0547 111.414 32.0547C110.631 32.0547 109.722 31.9848 108.687 31.8449C107.68 31.733 106.715 31.5512 105.792 31.2995C104.869 31.0198 104.086 30.6562 103.442 30.2086C102.827 29.7611 102.519 29.2017 102.519 28.5304C102.519 28.2786 102.561 27.9709 102.645 27.6073C102.757 27.2437 102.911 26.8941 103.107 26.5584C103.33 26.2228 103.582 25.9431 103.862 25.7193C104.17 25.4675 104.533 25.3417 104.953 25.3417C105.288 25.3417 105.596 25.4256 105.876 25.5934C106.155 25.7612 106.477 25.9431 106.841 26.1389C107.232 26.3067 107.708 26.4745 108.267 26.6423C108.827 26.8102 109.568 26.8941 110.491 26.8941C111.19 26.8941 111.806 26.8102 112.337 26.6423C112.896 26.4745 113.176 26.0969 113.176 25.5095C113.176 24.9781 112.952 24.5585 112.505 24.2508C112.057 23.9152 111.484 23.6075 110.785 23.3278C110.113 23.0481 109.372 22.7544 108.561 22.4467C107.778 22.111 107.037 21.6775 106.337 21.146C105.666 20.6146 105.107 19.9433 104.659 19.1321C104.211 18.293 103.988 17.2161 103.988 15.9015C103.988 14.475 104.267 13.2722 104.827 12.2932C105.414 11.2863 106.155 10.4751 107.051 9.85976C107.974 9.2444 109.008 8.81085 110.155 8.55911C111.302 8.2794 112.449 8.13955 113.596 8.13955Z" fill="white"/>
<path d="M130.87 14.2232C130.786 15.2861 130.688 16.335 130.577 17.37C130.493 18.4049 130.409 19.3839 130.325 20.3069C130.241 21.2299 130.171 22.0551 130.115 22.7823C130.087 23.5096 130.073 24.069 130.073 24.4606C130.073 25.1878 130.157 25.6773 130.325 25.9291C130.493 26.1528 130.772 26.2647 131.164 26.2647C131.472 26.2647 131.737 26.2088 131.961 26.0969C132.185 25.985 132.395 25.8591 132.591 25.7193C132.786 25.5794 132.954 25.4536 133.094 25.3417C133.262 25.2298 133.444 25.1739 133.639 25.1739C133.835 25.1739 134.017 25.2857 134.185 25.5095C134.353 25.7333 134.437 26.2507 134.437 27.0619C134.437 28.6003 134.017 29.817 133.178 30.7121C132.339 31.6072 130.898 32.0547 128.856 32.0547C126.842 32.0547 125.346 31.5932 124.367 30.6701C123.416 29.7191 122.941 28.2786 122.941 26.3486C122.941 25.9291 122.955 25.4396 122.982 24.8802C123.038 24.2928 123.108 23.5376 123.192 22.6145C123.276 21.6915 123.374 20.5586 123.486 19.216C123.626 17.8734 123.766 16.2092 123.906 14.2232H121.682C121.458 14.2232 121.318 14.1813 121.262 14.0974C121.234 13.9855 121.22 13.8316 121.22 13.6358L121.346 11.4961C121.374 11.1324 121.416 10.7828 121.472 10.4471C121.556 10.0835 121.696 9.76186 121.892 9.48215C122.115 9.20244 122.423 8.97867 122.815 8.81085C123.206 8.64302 123.724 8.55911 124.367 8.55911C124.563 8.05563 124.787 7.45426 125.038 6.75498C125.29 6.05571 125.542 5.38441 125.794 4.74107C126.045 4.06977 126.283 3.51035 126.507 3.06282C126.759 2.61528 126.982 2.39152 127.178 2.39152H128.395C129.57 2.39152 130.381 2.75514 130.828 3.48238C131.276 4.20963 131.5 5.07673 131.5 6.08368C131.5 6.6431 131.458 7.46824 131.374 8.55911H135.779C136.227 8.55911 136.451 8.75491 136.451 9.1465L136.283 11.4121C136.227 12.2513 135.989 12.9366 135.569 13.468C135.178 13.9715 134.353 14.2232 133.094 14.2232H130.87Z" fill="white"/>
<path d="M141.251 31.6351C140.384 31.6351 139.671 31.5512 139.111 31.3834C138.58 31.1876 138.146 30.9219 137.81 30.5862C137.503 30.2506 137.279 29.845 137.139 29.3695C137.027 28.866 136.971 28.2926 136.971 27.6493C136.971 27.2297 136.985 26.6423 137.013 25.8871C137.069 25.1039 137.153 24.041 137.265 22.6984C137.377 21.3278 137.503 19.6076 137.643 17.5378C137.81 15.44 138.006 12.8526 138.23 9.77585C138.258 9.16048 138.328 8.79686 138.44 8.68498C138.524 8.60107 138.748 8.55911 139.111 8.55911H140.747C141.615 8.55911 142.314 8.64302 142.845 8.81085C143.405 8.97867 143.838 9.23041 144.146 9.56606C144.482 9.90172 144.705 10.3073 144.817 10.7828C144.957 11.2583 145.027 11.7898 145.027 12.3771C145.027 12.7967 144.999 13.4261 144.943 14.2652C144.887 15.1043 144.803 16.2511 144.691 17.7056C144.607 19.1321 144.482 20.9223 144.314 23.076C144.146 25.2018 143.936 27.7752 143.684 30.796C143.656 31.1317 143.586 31.3554 143.475 31.4673C143.363 31.5792 143.125 31.6351 142.761 31.6351H141.251ZM138.272 3.60825C138.272 2.48941 138.678 1.60833 139.489 0.964998C140.3 0.321666 141.391 0 142.761 0C143.964 0 144.831 0.251738 145.363 0.755213C145.922 1.23072 146.202 1.87405 146.202 2.68521C146.202 3.72013 145.81 4.58723 145.027 5.28651C144.272 5.95781 143.153 6.29346 141.67 6.29346C139.405 6.29346 138.272 5.39839 138.272 3.60825Z" fill="white"/>
<path d="M157.624 26.4745C158.436 26.4745 159.135 26.3626 159.722 26.1389C160.338 25.9151 160.869 25.6633 161.317 25.3836C161.764 25.1039 162.142 24.8522 162.449 24.6284C162.757 24.4047 163.037 24.2928 163.289 24.2928C163.932 24.2928 164.254 24.7123 164.254 25.5515C164.254 25.7473 164.212 26.027 164.128 26.3906C164.044 26.7262 163.932 27.0899 163.792 27.4815C163.652 27.8451 163.498 28.1947 163.33 28.5304C163.191 28.866 163.051 29.1178 162.911 29.2856C162.771 29.4254 162.519 29.6492 162.156 29.9569C161.82 30.2646 161.359 30.5722 160.771 30.8799C160.184 31.1876 159.498 31.4533 158.715 31.6771C157.932 31.9288 157.065 32.0547 156.114 32.0547C155.051 32.0547 153.946 31.9009 152.799 31.5932C151.681 31.2575 150.66 30.6981 149.737 29.9149C148.814 29.1038 148.044 28.0269 147.429 26.6843C146.842 25.3137 146.548 23.6075 146.548 21.5656C146.548 20.8384 146.59 20.0132 146.674 19.0902C146.786 18.1392 146.995 17.1742 147.303 16.1952C147.611 15.1882 148.016 14.2092 148.52 13.2582C149.051 12.2792 149.751 11.4121 150.618 10.6569C151.485 9.90172 152.52 9.30034 153.722 8.8528C154.953 8.3773 156.408 8.13955 158.086 8.13955C159.457 8.13955 160.631 8.30737 161.61 8.64302C162.617 8.9507 163.442 9.38425 164.086 9.94367C164.729 10.4751 165.205 11.1045 165.512 11.8317C165.848 12.559 166.016 13.3421 166.016 14.1813C166.016 15.6917 165.54 16.8105 164.589 17.5378C163.638 18.2371 162.296 18.5867 160.561 18.5867C160.142 18.5867 159.848 18.5587 159.68 18.5028C159.54 18.4189 159.47 18.251 159.47 17.9993C159.47 17.328 159.457 16.7266 159.429 16.1952C159.401 15.6637 159.317 15.2162 159.177 14.8526C159.065 14.489 158.883 14.2092 158.631 14.0134C158.38 13.8176 158.016 13.7197 157.54 13.7197C156.673 13.7197 155.974 13.9995 155.443 14.5589C154.939 15.1183 154.548 15.8036 154.268 16.6147C154.016 17.3979 153.848 18.2091 153.764 19.0482C153.708 19.8873 153.681 20.5866 153.681 21.146C153.681 23.132 153.988 24.5165 154.604 25.2997C155.247 26.0829 156.254 26.4745 157.624 26.4745Z" fill="white"/>
<path d="M176.455 8.13955C178.833 8.13955 180.581 8.61505 181.7 9.56606C182.818 10.4891 183.378 11.6779 183.378 13.1324C183.378 14.3631 182.986 15.3001 182.203 15.9434C181.448 16.5868 180.343 16.9084 178.888 16.9084C178.497 16.9084 178.231 16.8665 178.091 16.7826C177.951 16.6987 177.881 16.5448 177.881 16.321C177.881 16.0693 177.854 15.7896 177.798 15.4819C177.77 15.1463 177.672 14.8386 177.504 14.5589C177.364 14.2512 177.126 13.9995 176.791 13.8037C176.483 13.6079 176.035 13.51 175.448 13.51C174.665 13.51 174.035 13.7058 173.56 14.0974C173.084 14.461 172.847 14.9225 172.847 15.4819C172.847 16.0693 173.084 16.5448 173.56 16.9084C174.063 17.2441 174.679 17.5658 175.406 17.8734C176.161 18.1811 176.972 18.5028 177.84 18.8384C178.707 19.1461 179.504 19.5657 180.231 20.0971C180.986 20.6286 181.602 21.2999 182.077 22.111C182.581 22.8942 182.832 23.9152 182.832 25.1739C182.832 27.1878 182.119 28.838 180.693 30.1247C179.266 31.4114 177.126 32.0547 174.273 32.0547C173.49 32.0547 172.581 31.9848 171.546 31.8449C170.539 31.733 169.574 31.5512 168.651 31.2995C167.728 31.0198 166.945 30.6562 166.302 30.2086C165.686 29.7611 165.378 29.2017 165.378 28.5304C165.378 28.2786 165.42 27.9709 165.504 27.6073C165.616 27.2437 165.77 26.8941 165.966 26.5584C166.19 26.2228 166.441 25.9431 166.721 25.7193C167.029 25.4675 167.392 25.3417 167.812 25.3417C168.148 25.3417 168.455 25.4256 168.735 25.5934C169.015 25.7612 169.336 25.9431 169.7 26.1389C170.092 26.3067 170.567 26.4745 171.127 26.6423C171.686 26.8102 172.427 26.8941 173.35 26.8941C174.049 26.8941 174.665 26.8102 175.196 26.6423C175.756 26.4745 176.035 26.0969 176.035 25.5095C176.035 24.9781 175.812 24.5585 175.364 24.2508C174.917 23.9152 174.343 23.6075 173.644 23.3278C172.973 23.0481 172.231 22.7544 171.42 22.4467C170.637 22.111 169.896 21.6775 169.197 21.146C168.525 20.6146 167.966 19.9433 167.518 19.1321C167.071 18.293 166.847 17.2161 166.847 15.9015C166.847 14.475 167.127 13.2722 167.686 12.2932C168.273 11.2863 169.015 10.4751 169.91 9.85976C170.833 9.2444 171.868 8.81085 173.015 8.55911C174.161 8.2794 175.308 8.13955 176.455 8.13955Z" fill="white"/>
<path d="M63.902 40.6694C64.5169 40.6694 65.028 40.7567 65.4352 40.9312C65.8425 41.1015 66.1479 41.3509 66.3515 41.6791C66.5592 42.0074 66.6631 42.4084 66.6631 42.8821C66.6631 43.3391 66.5696 43.7277 66.3826 44.0476C66.1998 44.3634 65.9671 44.6065 65.6846 44.7769C65.402 44.9472 65.1111 45.0428 64.812 45.0636C65.1278 45.0719 65.4436 45.1488 65.7594 45.2942C66.0793 45.4396 66.3452 45.6723 66.5572 45.9923C66.7691 46.3122 66.875 46.7423 66.875 47.2825C66.875 47.7936 66.7732 48.2444 66.5696 48.635C66.366 49.0214 66.0419 49.3227 65.5973 49.5388C65.1568 49.7548 64.5813 49.8629 63.8708 49.8629H60.4614V40.6694H63.902ZM62.0321 44.9389L61.4898 44.459H63.341C63.8895 44.459 64.305 44.3447 64.5876 44.1162C64.8743 43.8835 65.0176 43.5615 65.0176 43.1501C65.0176 42.8717 64.9574 42.6473 64.8369 42.4769C64.7205 42.3066 64.546 42.1819 64.3133 42.103C64.0848 42.0199 63.8085 41.9783 63.4844 41.9783H61.2904L62.0321 41.1618V44.9389ZM63.5467 48.554C64.0786 48.554 64.4879 48.4335 64.7746 48.1925C65.0613 47.9515 65.2046 47.6149 65.2046 47.1827C65.2046 46.9334 65.1589 46.7194 65.0675 46.5408C64.9802 46.3579 64.8556 46.2104 64.6935 46.0982C64.5356 45.9819 64.3487 45.8967 64.1326 45.8427C63.9207 45.7887 63.688 45.7616 63.4345 45.7616H61.4898L62.0321 45.2755V49.3705L61.2904 48.554H63.5467Z" fill="white"/>
<path d="M74.5836 41.9783L75.3253 41.1618V45.0885L74.9389 44.5961H78.3794V45.905H74.9389L75.3253 45.4188V49.3705L74.5836 48.554H79.0713V49.8629H73.6736V40.6694H79.0713V41.9783H74.5836Z" fill="white"/>
<path d="M89.0317 50C88.3793 50 87.81 49.8961 87.3239 49.6884C86.8377 49.4806 86.4596 49.1689 86.1895 48.7534C85.9194 48.3337 85.7844 47.8143 85.7844 47.1952C85.7844 47.1246 85.7844 47.0622 85.7844 47.0082C85.7844 46.95 85.7844 46.8856 85.7844 46.815H87.4236C87.4236 46.8773 87.4236 46.9355 87.4236 46.9895C87.4236 47.0394 87.4236 47.0976 87.4236 47.164C87.4236 47.6627 87.5587 48.0366 87.8287 48.286C88.103 48.5311 88.506 48.6537 89.0379 48.6537C89.5739 48.6537 89.9832 48.5644 90.2658 48.3857C90.5525 48.207 90.6959 47.9203 90.6959 47.5255C90.6959 47.2388 90.5982 46.9958 90.4029 46.7963C90.2118 46.5927 89.9479 46.414 89.6113 46.2603C89.2748 46.1065 88.8925 45.9632 88.4645 45.8302C87.9825 45.6806 87.5441 45.4874 87.1494 45.2506C86.7546 45.0137 86.4388 44.7145 86.202 44.353C85.9651 43.9915 85.8467 43.5469 85.8467 43.0192C85.8467 42.4915 85.9817 42.0427 86.2518 41.6729C86.5261 41.3031 86.9 41.0226 87.3737 40.8315C87.8516 40.6362 88.3939 40.5385 89.0005 40.5385C89.6363 40.5385 90.1952 40.6382 90.6772 40.8377C91.1633 41.0371 91.5435 41.3342 91.8178 41.729C92.092 42.1237 92.2291 42.6161 92.2291 43.2062C92.2291 43.2851 92.2291 43.3537 92.2291 43.4119C92.2291 43.47 92.2291 43.5365 92.2291 43.6113H90.5837C90.5837 43.5573 90.5837 43.5033 90.5837 43.4493C90.5837 43.3911 90.5837 43.335 90.5837 43.281C90.5837 42.8073 90.4549 42.4582 90.1972 42.2339C89.9396 42.0053 89.549 41.891 89.0255 41.891C88.5144 41.891 88.1217 41.9804 87.8474 42.1591C87.5732 42.3377 87.4361 42.6224 87.4361 43.013C87.4361 43.3038 87.5296 43.5469 87.7166 43.7422C87.9035 43.9375 88.1591 44.1079 88.4832 44.2533C88.8115 44.3946 89.1834 44.5379 89.5989 44.6834C90.1515 44.8662 90.6294 45.074 91.0324 45.3067C91.4355 45.5352 91.7471 45.8219 91.9674 46.1668C92.1876 46.5075 92.2977 46.9417 92.2977 47.4695C92.2977 48.0096 92.1606 48.4688 91.8863 48.8469C91.6162 49.2209 91.236 49.5076 90.7457 49.707C90.2596 49.9023 89.6882 50 89.0317 50Z" fill="white"/>
<path d="M104.905 41.9783H101.994L102.598 41.1618V49.8629H100.953V41.1618L101.589 41.9783H98.6531V40.6694H104.905V41.9783Z" fill="white"/>
<path d="M120.877 41.9783L121.618 41.1618V45.1446L121.107 44.7021H124.859V46.0172H121.107L121.618 45.5435V49.8629H119.985V40.6694H125.414V41.9783H120.877Z" fill="white"/>
<path d="M135.257 50C134.7 50 134.181 49.8961 133.699 49.6884C133.217 49.4806 132.793 49.1752 132.427 48.7721C132.066 48.3649 131.783 47.8684 131.58 47.2825C131.38 46.6924 131.28 46.0172 131.28 45.2568C131.28 44.4964 131.38 43.8232 131.58 43.2373C131.783 42.6515 132.066 42.1591 132.427 41.7602C132.789 41.3571 133.21 41.0538 133.692 40.8502C134.179 40.6424 134.7 40.5385 135.257 40.5385C135.822 40.5385 136.346 40.6424 136.828 40.8502C137.314 41.0538 137.738 41.3571 138.099 41.7602C138.461 42.1591 138.741 42.6515 138.941 43.2373C139.144 43.8232 139.246 44.4964 139.246 45.2568C139.246 46.0172 139.144 46.6924 138.941 47.2825C138.737 47.8684 138.452 48.3649 138.087 48.7721C137.725 49.1752 137.303 49.4806 136.821 49.6884C136.339 49.8961 135.818 50 135.257 50ZM135.257 48.6475C135.689 48.6475 136.08 48.5311 136.429 48.2984C136.778 48.0616 137.054 47.6938 137.258 47.1952C137.465 46.6966 137.569 46.0504 137.569 45.2568C137.569 44.459 137.465 43.8149 137.258 43.3246C137.05 42.8301 136.771 42.4686 136.422 42.2401C136.073 42.0115 135.685 41.8973 135.257 41.8973C134.837 41.8973 134.451 42.0115 134.098 42.2401C133.749 42.4686 133.468 42.8301 133.256 43.3246C133.048 43.8149 132.945 44.459 132.945 45.2568C132.945 46.0546 133.048 46.7028 133.256 47.2014C133.468 47.7001 133.749 48.0657 134.098 48.2984C134.451 48.5311 134.837 48.6475 135.257 48.6475Z" fill="white"/>
<path d="M149.686 50C149.13 50 148.61 49.8961 148.128 49.6884C147.646 49.4806 147.222 49.1752 146.857 48.7721C146.495 48.3649 146.213 47.8684 146.009 47.2825C145.81 46.6924 145.71 46.0172 145.71 45.2568C145.71 44.4964 145.81 43.8232 146.009 43.2373C146.213 42.6515 146.495 42.1591 146.857 41.7602C147.218 41.3571 147.64 41.0538 148.122 40.8502C148.608 40.6424 149.13 40.5385 149.686 40.5385C150.252 40.5385 150.775 40.6424 151.257 40.8502C151.743 41.0538 152.167 41.3571 152.529 41.7602C152.89 42.1591 153.171 42.6515 153.37 43.2373C153.574 43.8232 153.675 44.4964 153.675 45.2568C153.675 46.0172 153.574 46.6924 153.37 47.2825C153.166 47.8684 152.882 48.3649 152.516 48.7721C152.155 49.1752 151.733 49.4806 151.251 49.6884C150.769 49.8961 150.247 50 149.686 50ZM149.686 48.6475C150.119 48.6475 150.509 48.5311 150.858 48.2984C151.207 48.0616 151.484 47.6938 151.687 47.1952C151.895 46.6966 151.999 46.0504 151.999 45.2568C151.999 44.459 151.895 43.8149 151.687 43.3246C151.479 42.8301 151.201 42.4686 150.852 42.2401C150.503 42.0115 150.114 41.8973 149.686 41.8973C149.267 41.8973 148.88 42.0115 148.527 42.2401C148.178 42.4686 147.898 42.8301 147.686 43.3246C147.478 43.8149 147.374 44.459 147.374 45.2568C147.374 46.0546 147.478 46.7028 147.686 47.2014C147.898 47.7001 148.178 48.0657 148.527 48.2984C148.88 48.5311 149.267 48.6475 149.686 48.6475Z" fill="white"/>
<path d="M160.389 49.8629V40.6694H163.137C163.748 40.6694 164.303 40.7795 164.802 40.9997C165.3 41.2158 165.728 41.5254 166.086 41.9284C166.443 42.3315 166.719 42.8156 166.915 43.3807C167.11 43.9417 167.208 44.567 167.208 45.2568C167.208 45.9466 167.11 46.574 166.915 47.1391C166.719 47.7001 166.443 48.1842 166.086 48.5914C165.728 48.9986 165.3 49.3123 164.802 49.5325C164.303 49.7528 163.748 49.8629 163.137 49.8629H160.389ZM162.034 49.3705L161.293 48.554H162.926C163.424 48.554 163.869 48.421 164.259 48.1551C164.654 47.885 164.966 47.5048 165.194 47.0145C165.423 46.52 165.537 45.9341 165.537 45.2568C165.537 44.5753 165.423 43.9894 165.194 43.4991C164.966 43.0088 164.654 42.6328 164.259 42.371C163.869 42.1092 163.424 41.9783 162.926 41.9783H161.293L162.034 41.1618V49.3705Z" fill="white"/>
<path d="M176.915 50C176.263 50 175.694 49.8961 175.208 49.6884C174.722 49.4806 174.343 49.1689 174.073 48.7534C173.803 48.3337 173.668 47.8143 173.668 47.1952C173.668 47.1246 173.668 47.0622 173.668 47.0082C173.668 46.95 173.668 46.8856 173.668 46.815H175.307C175.307 46.8773 175.307 46.9355 175.307 46.9895C175.307 47.0394 175.307 47.0976 175.307 47.164C175.307 47.6627 175.442 48.0366 175.713 48.286C175.987 48.5311 176.39 48.6537 176.922 48.6537C177.458 48.6537 177.867 48.5644 178.15 48.3857C178.436 48.207 178.58 47.9203 178.58 47.5255C178.58 47.2388 178.482 46.9958 178.287 46.7963C178.096 46.5927 177.832 46.414 177.495 46.2603C177.159 46.1065 176.776 45.9632 176.348 45.8302C175.866 45.6806 175.428 45.4874 175.033 45.2506C174.638 45.0137 174.323 44.7145 174.086 44.353C173.849 43.9915 173.73 43.5469 173.73 43.0192C173.73 42.4915 173.866 42.0427 174.136 41.6729C174.41 41.3031 174.784 41.0226 175.258 40.8315C175.735 40.6362 176.278 40.5385 176.884 40.5385C177.52 40.5385 178.079 40.6382 178.561 40.8377C179.047 41.0371 179.427 41.3342 179.702 41.729C179.976 42.1237 180.113 42.6161 180.113 43.2062C180.113 43.2851 180.113 43.3537 180.113 43.4119C180.113 43.47 180.113 43.5365 180.113 43.6113H178.467C178.467 43.5573 178.467 43.5033 178.467 43.4493C178.467 43.3911 178.467 43.335 178.467 43.281C178.467 42.8073 178.339 42.4582 178.081 42.2339C177.823 42.0053 177.433 41.891 176.909 41.891C176.398 41.891 176.005 41.9804 175.731 42.1591C175.457 42.3377 175.32 42.6224 175.32 43.013C175.32 43.3038 175.413 43.5469 175.6 43.7422C175.787 43.9375 176.043 44.1079 176.367 44.2533C176.695 44.3946 177.067 44.5379 177.483 44.6834C178.035 44.8662 178.513 45.074 178.916 45.3067C179.319 45.5352 179.631 45.8219 179.851 46.1668C180.071 46.5075 180.182 46.9417 180.182 47.4695C180.182 48.0096 180.044 48.4688 179.77 48.8469C179.5 49.2209 179.12 49.5076 178.63 49.707C178.143 49.9023 177.572 50 176.915 50Z" fill="white"/>
</svg>
